{"title":"Passion.Play.2011.720p.BRRip.x264.Feel-Free","uid":6401979,"size":2323011209,"categoryP":"video","categoryS":"hd___movies","magnet":"?xt=urn:btih:4a1bdd690bd7b6043bb3fec4b27802a82f5ebbe1&amp;dn=Passion.Play.2011.720p.BRRip.x264.Feel-Free&amp;tr=udp%3A%2F%2Ftracker.openbittorrent.com%3A80&amp;tr=udp%3A%2F%2Fopen.demonii.com%3A1337&amp;tr=udp%3A%2F%2Ftracker.coppersurfer.tk%3A6969&amp;tr=udp%3A%2F%2Fexodus.desync.com%3A6969","seeders":0,"leechers":1,"uploader":"hiest","files":-1,"time":1305705878,"description":" Full Credits to (Pitic):\n\n\n ######## ######## ######## ##          ######## ########  ######## ######\n ##       ##       ##       ##          ##       ##     ## ##       ##       \n ##       ##       ##       ##          ##       ##     ## ##       ##       \n ######   ######   ######   ##          ######   ########  ######   ######   \n ##       ##       ##       ##          ##       ##   ##   ##       ##       \n ##       ##       ##       ##          ##       ##    ##  ##       ##       \n ##       ######## ######## ########    ##       ##     ## ######## ######\n\n\n Genre: Drama | Thriller\n Language:English\n IMDb:\n &lt;a href=&quot; http://www.imdb.com/title/tt1396221/&quot; rel=&quot;nofollow&quot; target=&quot;_NEW&quot;&gt; http://www.imdb.com/title/tt1396221/&lt;/a&gt;\n Source:BluRay.720p.DTS.x264-CHD\n\n Format : MPEG-4\n Format profile : Base Media\n Codec ID : isom\n File size : 2.16 GiB\n Duration : 1h 34mn\n Overall bit rate : 3 281 Kbps\n\n Video\n ID : 1\n Format : AVC\n Format/Info : Advanced Video Codec\n Format profile : &lt;a class=&quot;__cf_email__&quot; href=&quot;/cdn-cgi/l/email-protection&quot; data-cfemail=&quot;6f270608072f235b415e&quot;&gt;[email&amp;#160;protected]&lt;/a&gt;&lt;script cf-hash='f9e31' type=&quot;text/javascript&quot;&gt;\n/* &lt;![CDATA[ */!function(){try{var t=&quot;currentScript&quot;in document?document.currentScript:function(){for(var t=document.getElementsByTagName(&quot;script&quot;),e=t.length;e--;)if(t[e].getAttribute(&quot;cf-hash&quot;))return t[e]}();if(t&amp;&amp;t.previousSibling){var e,r,n,i,c=t.previousSibling,a=c.getAttribute(&quot;data-cfemail&quot;);if(a){for(e=&quot;&quot;,r=parseInt(a.substr(0,2),16),n=2;a.length-n;n+=2)i=parseInt(a.substr(n,2),16)^r,e+=String.fromCharCode(i);e=document.createTextNode(e),c.parentNode.replaceChild(e,c)}}}catch(u){}}();/* ]]&gt; */&lt;/script&gt;\n Format settings, CABAC : Yes\n Format settings, ReFrames : 3 frames\n Codec ID : avc1\n Codec ID/Info : Advanced Video Coding\n Duration : 1h 34mn\n Bit rate mode : Variable\n Bit rate : 2 835 Kbps\n Nominal bit rate : 3 000 Kbps\n Maximum bit rate : 13.2 Mbps\n Width : 1 280 pixels\n Height : 536 pixels\n Display aspect ratio : 2.35:1\n Frame rate mode : Constant\n Frame rate : 23.976 fps\n Color space : YUV\n Chroma subsampling : 4:2:0\n Bit depth : 8 bits\n Scan type : Progressive\n Bits/(Pixel*Frame) : 0.172\n Stream size : 1.87 GiB (86%)\n Writing library : x264\n\n Audio\n ID : 2\n Format : AAC\n Format/Info : Advanced Audio Codec\n Format version : Version 4\n Format profile : LC\n Format settings, SBR : No\n Codec ID : 40\n Duration : 1h 34mn\n Bit rate mode : Variable\n Bit rate : 443 Kbps\n Maximum bit rate : 516 Kbps\n Channel(s) : 6 channels\n Channel positions : Front: L C R, Side: L R, LFE\n Sampling rate : 48.0 KHz\n Stream size : 298 MiB (13%)\n\n\n Plot:\n An angel under the thumb of a ruthless gangster is saved by a trumpet \n player down on his luck.\n\n\n Full Credits to (Pitic):\n\n\n ######## ######## ######## ##          ######## ########  ######## ######\n ##       ##       ##       ##          ##       ##     ## ##       ##       \n ##       ##       ##       ##          ##       ##     ## ##       ##       \n ######   ######   ######   ##          ######   ########  ######   ######   \n ##       ##       ##       ##          ##       ##   ##   ##       ##       \n ##       ##       ##       ##          ##       ##    ##  ##       ##       \n ##       ######## ######## ########    ##       ##     ## ######## ######","torrent":{"xt":"urn:btih:4a1bdd690bd7b6043bb3fec4b27802a82f5ebbe1","amp;dn":"Passion.Play.2011.720p.BRRip.x264.Feel-Free","amp;tr":["udp%3A%2F%2Ftracker.openbittorrent.com%3A80","udp%3A%2F%2Fopen.demonii.com%3A1337","udp%3A%2F%2Ftracker.coppersurfer.tk%3A6969","udp%3A%2F%2Fexodus.desync.com%3A6969"],"infoHash":"4a1bdd690bd7b6043bb3fec4b27802a82f5ebbe1","infoHashBuffer":{"type":"Buffer","data":[74,27,221,105,11,215,182,4,59,179,254,196,178,120,2,168,47,94,187,225]},"announce":[],"urlList":[]}}